<svg width="27" height="27" viewBox="0 0 27 27" fill="none" xmlns="http://www.w3.org/2000/svg">
<path d="M13 3C18.523 3 23 7.477 23 13C23 18.523 18.523 23 13 23C11.1782 23.0028 9.39054 22.5054 7.83201 21.562L4.80001 22.454C4.62593 22.5052 4.44126 22.5086 4.26543 22.4638C4.08959 22.4189 3.92908 22.3276 3.80077 22.1992C3.67246 22.0709 3.58108 21.9104 3.53625 21.7346C3.49142 21.5587 3.49479 21.3741 3.54601 21.2L4.43801 18.168C3.49497 16.6093 2.99759 14.8218 3.00001 13C3.00001 7.477 7.47701 3 13 3ZM13 5C11.5676 4.99974 10.1615 5.38406 8.92834 6.11281C7.69521 6.84157 6.68036 7.88804 5.98977 9.14294C5.29918 10.3978 4.95817 11.8151 5.00237 13.2468C5.04656 14.6785 5.47433 16.0721 6.24101 17.282C6.46801 17.639 6.54601 18.089 6.41801 18.522L5.97701 20.023L7.47801 19.582C7.91101 19.454 8.36101 19.532 8.71801 19.759C9.76634 20.4228 10.9547 20.8336 12.1892 20.959C13.4236 21.0844 14.6703 20.921 15.8307 20.4816C16.9911 20.0422 18.0334 19.3389 18.8752 18.4273C19.717 17.5157 20.3352 16.4208 20.6809 15.2291C21.0266 14.0374 21.0904 12.7817 20.8673 11.5611C20.6441 10.3405 20.14 9.1886 19.395 8.19638C18.65 7.20415 17.6843 6.39883 16.5744 5.84408C15.4645 5.28933 14.2408 5.00036 13 5ZM9.50001 11.5C9.89783 11.5 10.2794 11.658 10.5607 11.9393C10.842 12.2206 11 12.6022 11 13C11 13.3978 10.842 13.7794 10.5607 14.0607C10.2794 14.342 9.89783 14.5 9.50001 14.5C9.10218 14.5 8.72065 14.342 8.43935 14.0607C8.15804 13.7794 8.00001 13.3978 8.00001 13C8.00001 12.6022 8.15804 12.2206 8.43935 11.9393C8.72065 11.658 9.10218 11.5 9.50001 11.5ZM16.5 11.5C16.8978 11.5 17.2794 11.658 17.5607 11.9393C17.842 12.2206 18 12.6022 18 13C18 13.3978 17.842 13.7794 17.5607 14.0607C17.2794 14.342 16.8978 14.5 16.5 14.5C16.1022 14.5 15.7207 14.342 15.4393 14.0607C15.158 13.7794 15 13.3978 15 13C15 12.6022 15.158 12.2206 15.4393 11.9393C15.7207 11.658 16.1022 11.5 16.5 11.5Z" fill="black"/>
<path d="M13 3C18.523 3 23 7.477 23 13C23 18.523 18.523 23 13 23C11.1782 23.0028 9.39054 22.5054 7.83201 21.562L4.80001 22.454C4.62593 22.5052 4.44126 22.5086 4.26543 22.4638C4.08959 22.4189 3.92908 22.3276 3.80077 22.1992C3.67246 22.0709 3.58108 21.9104 3.53625 21.7346C3.49142 21.5587 3.49479 21.3741 3.54601 21.2L4.43801 18.168C3.49497 16.6093 2.99759 14.8218 3.00001 13C3.00001 7.477 7.47701 3 13 3ZM13 5C11.5676 4.99974 10.1615 5.38406 8.92834 6.11281C7.69521 6.84157 6.68036 7.88804 5.98977 9.14294C5.29918 10.3978 4.95817 11.8151 5.00237 13.2468C5.04656 14.6785 5.47433 16.0721 6.24101 17.282C6.46801 17.639 6.54601 18.089 6.41801 18.522L5.97701 20.023L7.47801 19.582C7.91101 19.454 8.36101 19.532 8.71801 19.759C9.76634 20.4228 10.9547 20.8336 12.1892 20.959C13.4236 21.0844 14.6703 20.921 15.8307 20.4816C16.9911 20.0422 18.0334 19.3389 18.8752 18.4273C19.717 17.5157 20.3352 16.4208 20.6809 15.2291C21.0266 14.0374 21.0904 12.7817 20.8673 11.5611C20.6441 10.3405 20.14 9.1886 19.395 8.19638C18.65 7.20415 17.6843 6.39883 16.5744 5.84408C15.4645 5.28933 14.2408 5.00036 13 5ZM9.50001 11.5C9.89783 11.5 10.2794 11.658 10.5607 11.9393C10.842 12.2206 11 12.6022 11 13C11 13.3978 10.842 13.7794 10.5607 14.0607C10.2794 14.342 9.89783 14.5 9.50001 14.5C9.10218 14.5 8.72065 14.342 8.43935 14.0607C8.15804 13.7794 8.00001 13.3978 8.00001 13C8.00001 12.6022 8.15804 12.2206 8.43935 11.9393C8.72065 11.658 9.10218 11.5 9.50001 11.5ZM16.5 11.5C16.8978 11.5 17.2794 11.658 17.5607 11.9393C17.842 12.2206 18 12.6022 18 13C18 13.3978 17.842 13.7794 17.5607 14.0607C17.2794 14.342 16.8978 14.5 16.5 14.5C16.1022 14.5 15.7207 14.342 15.4393 14.0607C15.158 13.7794 15 13.3978 15 13C15 12.6022 15.158 12.2206 15.4393 11.9393C15.7207 11.658 16.1022 11.5 16.5 11.5Z" fill="url(#paint0_linear_197_640)"/>
<defs>
<linearGradient id="paint0_linear_197_640" x1="3.36364" y1="3.68966" x2="26.5466" y2="10.0279" gradientUnits="userSpaceOnUse">
<stop stop-color="#643977"/>
<stop offset="1" stop-color="#253854"/>
</linearGradient>
</defs>
</svg>
