<svg width="44" height="44" viewBox="0 0 44 44" fill="none" xmlns="http://www.w3.org/2000/svg">
<path fill-rule="evenodd" clip-rule="evenodd" d="M24 32H20C16.229 32 14.343 32 13.172 30.828C12 29.657 12 27.771 12 24V20C12 16.229 12 14.343 13.172 13.172C14.343 12 16.239 12 20.03 12C20.636 12 21.121 12 21.53 12.017C21.517 12.097 21.51 12.178 21.51 12.261L21.5 15.095C21.5 16.192 21.5 17.162 21.605 17.943C21.719 18.79 21.98 19.637 22.672 20.329C23.362 21.019 24.21 21.281 25.057 21.395C25.838 21.5 26.808 21.5 27.905 21.5H31.957C32 22.034 32 22.69 32 23.563V24C32 27.771 32 29.657 30.828 30.828C29.657 32 27.771 32 24 32Z" fill="url(#paint0_linear_80_29)"/>
<path d="M29.352 17.6171L25.392 14.0541C24.265 13.0391 23.702 12.5311 23.009 12.2661L23 15.0001C23 17.3571 23 18.5361 23.732 19.2681C24.464 20.0001 25.643 20.0001 28 20.0001H31.58C31.218 19.2961 30.568 18.7121 29.352 17.6171Z" fill="url(#paint1_linear_80_29)"/>
<defs>
<linearGradient id="paint0_linear_80_29" x1="12.3636" y1="12.6897" x2="35.5466" y2="19.0279" gradientUnits="userSpaceOnUse">
<stop stop-color="#643977"/>
<stop offset="1" stop-color="#253854"/>
</linearGradient>
<linearGradient id="paint1_linear_80_29" x1="23.156" y1="12.5328" x2="32.9444" y2="15.5017" gradientUnits="userSpaceOnUse">
<stop stop-color="#643977"/>
<stop offset="1" stop-color="#253854"/>
</linearGradient>
</defs>
</svg>
