<svg width="27" height="27" viewBox="0 0 27 27" fill="none" xmlns="http://www.w3.org/2000/svg">
<g clip-path="url(#clip0_197_644)">
<path d="M5.929 7.29762C6.11761 7.11245 6.37021 7.01 6.63241 7.01231C6.8946 7.01463 7.14541 7.12153 7.33082 7.31C7.51623 7.49847 7.6214 7.75342 7.62368 8.01994C7.62596 8.28646 7.52516 8.54323 7.343 8.73494C6.5989 9.48916 6.00883 10.3855 5.60673 11.3723C5.20463 12.3592 4.99844 13.4171 5.00001 14.4853C4.99833 15.5534 5.20447 16.6114 5.60658 17.5983C6.00869 18.5851 6.59881 19.4814 7.343 20.2356C7.44219 20.3284 7.5219 20.4406 7.57734 20.5655C7.63277 20.6904 7.66278 20.8254 7.66558 20.9625C7.66837 21.0995 7.64388 21.2356 7.59358 21.3628C7.54329 21.4899 7.46822 21.6054 7.3729 21.7023C7.27757 21.7992 7.16396 21.8755 7.03889 21.9266C6.91381 21.9777 6.77986 22.0026 6.64508 21.9998C6.5103 21.9969 6.37747 21.9664 6.25459 21.9101C6.13171 21.8537 6.0213 21.7727 5.93 21.6719C5.00011 20.7291 4.26259 19.609 3.75977 18.3757C3.25696 17.1424 2.99876 15.8203 3.00001 14.4853C2.9985 13.1502 3.25647 11.8279 3.75912 10.5944C4.26176 9.36096 4.99917 8.24057 5.929 7.29762ZM18.657 7.29762C18.8445 7.10705 19.0988 7 19.364 7C19.6292 7 19.8835 7.10705 20.071 7.29762C21.0008 8.24057 21.7382 9.36096 22.2409 10.5944C22.7435 11.8279 23.0015 13.1502 23 14.4853C23.0015 15.8204 22.7435 17.1426 22.2409 18.3761C21.7382 19.6096 21.0008 20.7299 20.071 21.6729C19.8824 21.8581 19.6298 21.9605 19.3676 21.9582C19.1054 21.9559 18.8546 21.849 18.6692 21.6605C18.4838 21.4721 18.3786 21.2171 18.3763 20.9506C18.374 20.6841 18.4748 20.4273 18.657 20.2356C19.4011 19.4814 19.9912 18.585 20.3933 17.5982C20.7954 16.6113 21.0016 15.5534 21 14.4853C21.0017 13.4171 20.7955 12.3591 20.3934 11.3723C19.9913 10.3854 19.4012 9.48909 18.657 8.73494C18.4695 8.54432 18.3642 8.28582 18.3642 8.01628C18.3642 7.74674 18.4695 7.48824 18.657 7.29762ZM10.172 10.1723C10.265 10.2667 10.3387 10.3788 10.3891 10.5022C10.4394 10.6256 10.4653 10.7579 10.4653 10.8914C10.4653 11.025 10.4394 11.1573 10.3891 11.2807C10.3387 11.4041 10.265 11.5162 10.172 11.6106C9.79983 11.9875 9.50468 12.4356 9.30354 12.9289C9.1024 13.4223 8.99924 13.9512 9 14.4853C9 15.6339 9.467 16.6687 10.22 17.4097C10.3185 17.5015 10.3979 17.6123 10.4536 17.7358C10.5092 17.8593 10.54 17.9928 10.544 18.1285C10.548 18.2643 10.5253 18.3995 10.477 18.5261C10.4288 18.6528 10.3561 18.7683 10.2632 18.8659C10.1703 18.9635 10.0591 19.0412 9.93623 19.0944C9.81331 19.1476 9.68115 19.1753 9.54755 19.1757C9.41395 19.1761 9.28162 19.1493 9.15838 19.0969C9.03514 19.0445 8.92348 18.9675 8.83 18.8704C8.25046 18.3022 7.78968 17.621 7.47523 16.8675C7.16079 16.114 6.99916 15.3037 7 14.4853C7 12.8009 7.673 11.2752 8.757 10.1723C8.84988 10.0778 8.96016 10.0028 9.08156 9.95163C9.20296 9.90047 9.33309 9.87414 9.4645 9.87414C9.59592 9.87414 9.72604 9.90047 9.84744 9.95163C9.96884 10.0028 10.0791 10.0778 10.172 10.1723ZM17.282 10.2129C18.3846 11.3523 19.0017 12.887 19 14.4853C19.001 15.2864 18.8462 16.0798 18.5447 16.8199C18.2432 17.5601 17.8008 18.2324 17.243 18.7983C17.0554 18.989 16.8009 19.0961 16.5355 19.0961C16.2701 19.0961 16.0156 18.989 15.828 18.7983C15.6404 18.6075 15.5349 18.3488 15.5349 18.0791C15.5349 17.8093 15.6404 17.5506 15.828 17.3599C16.2002 16.983 16.4953 16.5349 16.6965 16.0416C16.8976 15.5482 17.0008 15.0193 17 14.4853C17 13.3763 16.564 12.3709 15.855 11.637C15.6738 11.4438 15.5746 11.1858 15.579 10.9188C15.5833 10.6519 15.6908 10.3974 15.8783 10.2103C16.0657 10.0233 16.318 9.9187 16.5806 9.91919C16.8433 9.91967 17.0952 10.0252 17.282 10.2129ZM13 12.9605C13.3978 12.9605 13.7794 13.1212 14.0607 13.4071C14.342 13.693 14.5 14.0809 14.5 14.4853C14.5 14.8896 14.342 15.2775 14.0607 15.5634C13.7794 15.8494 13.3978 16.01 13 16.01C12.6022 16.01 12.2206 15.8494 11.9393 15.5634C11.658 15.2775 11.5 14.8896 11.5 14.4853C11.5 14.0809 11.658 13.693 11.9393 13.4071C12.2206 13.1212 12.6022 12.9605 13 12.9605Z" fill="url(#paint0_linear_197_644)"/>
</g>
<defs>
<linearGradient id="paint0_linear_197_644" x1="3.36364" y1="7.51724" x2="25.3569" y2="15.5345" gradientUnits="userSpaceOnUse">
<stop stop-color="#643977"/>
<stop offset="1" stop-color="#253854"/>
</linearGradient>
<clipPath id="clip0_197_644">
<rect width="27" height="27" fill="white"/>
</clipPath>
</defs>
</svg>
