<svg width="45" height="24" viewBox="0 0 45 24" fill="none" xmlns="http://www.w3.org/2000/svg">
<rect width="45" height="23.7273" rx="11.8636" fill="url(#paint0_linear_249_9)"/>
<path d="M29 11.2486C28.8166 9.92629 28.2043 8.70108 27.2575 7.76171C26.3107 6.82233 25.0818 6.22089 23.7603 6.05005C22.4387 5.87921 21.0977 6.14843 19.9439 6.81625C18.7901 7.48407 17.8874 8.51344 17.375 9.74579M17 6.74018V9.74579H20M17 12.7514C17.1834 14.0737 17.7957 15.2989 18.7425 16.2383C19.6893 17.1777 20.9182 17.7791 22.2397 17.9499C23.5613 18.1208 24.9023 17.8516 26.0561 17.1837C27.2099 16.5159 28.1126 15.4866 28.625 14.2542M29 17.2598V14.2542H26" stroke="white" stroke-width="2" stroke-linecap="round" stroke-linejoin="round"/>
<defs>
<linearGradient id="paint0_linear_249_9" x1="0.818181" y1="0.818183" x2="45" y2="23.7273" gradientUnits="userSpaceOnUse">
<stop stop-color="#643977"/>
<stop offset="1" stop-color="#253854"/>
</linearGradient>
</defs>
</svg>
