<svg width="50" height="50" viewBox="0 0 50 50" fill="none" xmlns="http://www.w3.org/2000/svg">
<g id="Group 223">
<g id="Rectangle 346" filter="url(#filter0_d_9_142)">
<rect x="5" y="4" width="39.9072" height="40" rx="11" fill="white"/>
</g>
<g id="Group 222">
<g id="Ellipse 164">
<path d="M38.9211 26.4862C38.9211 33.9104 32.8978 35 25.4677 35C18.0375 35 12.0142 33.9104 12.0142 26.4862C12.0142 19.062 18.0375 13 25.4677 13C32.8978 13 38.9211 19.062 38.9211 26.4862Z" fill="#CFE8F9"/>
<path d="M38.9211 26.4862C38.9211 33.9104 32.8978 35 25.4677 35C18.0375 35 12.0142 33.9104 12.0142 26.4862C12.0142 19.062 18.0375 13 25.4677 13C32.8978 13 38.9211 19.062 38.9211 26.4862Z" fill="url(#paint0_linear_9_142)" fill-opacity="0.6"/>
</g>
<g id="Ellipse 165" filter="url(#filter1_i_9_142)">
<ellipse cx="25.5056" cy="24.5715" rx="9.90909" ry="7.53633" fill="url(#paint1_linear_9_142)"/>
</g>
<ellipse id="Ellipse 166" cx="21.9616" cy="23.4672" rx="1.10524" ry="1.7128" fill="white"/>
<ellipse id="Ellipse 167" cx="29.2025" cy="23.4672" rx="1.10524" ry="1.7128" fill="white"/>
<path id="Vector 311" d="M12.1666 24.4946C13.5589 30.204 18.0111 31.8733 22.2281 34.9237C18.2263 34.6573 10.7183 33.5915 12.1666 24.4946Z" fill="url(#paint2_linear_9_142)"/>
</g>
</g>
<defs>
<filter id="filter0_d_9_142" x="0" y="0" width="49.9072" height="50" filterUnits="userSpaceOnUse" color-interpolation-filters="sRGB">
<feFlood flood-opacity="0" result="BackgroundImageFix"/>
<feColorMatrix in="SourceAlpha" type="matrix" values="0 0 0 0 0 0 0 0 0 0 0 0 0 0 0 0 0 0 127 0" result="hardAlpha"/>
<feOffset dy="1"/>
<feGaussianBlur stdDeviation="2.5"/>
<feComposite in2="hardAlpha" operator="out"/>
<feColorMatrix type="matrix" values="0 0 0 0 0.85098 0 0 0 0 0.85098 0 0 0 0 0.85098 0 0 0 0.8 0"/>
<feBlend mode="normal" in2="BackgroundImageFix" result="effect1_dropShadow_9_142"/>
<feBlend mode="normal" in="SourceGraphic" in2="effect1_dropShadow_9_142" result="shape"/>
</filter>
<filter id="filter1_i_9_142" x="15.5966" y="17.0352" width="19.8181" height="15.0728" filterUnits="userSpaceOnUse" color-interpolation-filters="sRGB">
<feFlood flood-opacity="0" result="BackgroundImageFix"/>
<feBlend mode="normal" in="SourceGraphic" in2="BackgroundImageFix" result="shape"/>
<feColorMatrix in="SourceAlpha" type="matrix" values="0 0 0 0 0 0 0 0 0 0 0 0 0 0 0 0 0 0 127 0" result="hardAlpha"/>
<feOffset/>
<feGaussianBlur stdDeviation="25"/>
<feComposite in2="hardAlpha" operator="arithmetic" k2="-1" k3="1"/>
<feColorMatrix type="matrix" values="0 0 0 0 0 0 0 0 0 0 0 0 0 0 0 0 0 0 0.4 0"/>
<feBlend mode="normal" in2="shape" result="effect1_innerShadow_9_142"/>
</filter>
<linearGradient id="paint0_linear_9_142" x1="30.9176" y1="14.2561" x2="15.9259" y2="33.5725" gradientUnits="userSpaceOnUse">
<stop stop-color="white"/>
<stop offset="1" stop-color="white" stop-opacity="0"/>
</linearGradient>
<linearGradient id="paint1_linear_9_142" x1="19.2934" y1="18.6718" x2="32.2747" y2="30.1834" gradientUnits="userSpaceOnUse">
<stop stop-color="#AD5FBC"/>
<stop offset="1" stop-color="#2E3FD4"/>
</linearGradient>
<linearGradient id="paint2_linear_9_142" x1="16.2064" y1="30.5846" x2="14.6407" y2="32.5995" gradientUnits="userSpaceOnUse">
<stop stop-color="#BED9EB" stop-opacity="0"/>
<stop offset="1" stop-color="#BED9EB"/>
</linearGradient>
</defs>
</svg>
