<svg width="160" height="72" viewBox="0 0 160 72" fill="none" xmlns="http://www.w3.org/2000/svg">
<path d="M3.02273 47V23.7273H7.94318V42.9432H17.9205V47H3.02273ZM29.0426 47.3409C27.2472 47.3409 25.7017 46.9773 24.4062 46.25C23.1184 45.5152 22.1259 44.4773 21.429 43.1364C20.732 41.7879 20.3835 40.1932 20.3835 38.3523C20.3835 36.5568 20.732 34.9811 21.429 33.625C22.1259 32.2689 23.107 31.2121 24.3722 30.4545C25.6449 29.697 27.1373 29.3182 28.8494 29.3182C30.0009 29.3182 31.0729 29.5038 32.0653 29.875C33.0653 30.2386 33.9366 30.7879 34.679 31.5227C35.429 32.2576 36.0123 33.1818 36.429 34.2955C36.8456 35.4015 37.054 36.697 37.054 38.1818V39.5114H22.3153V36.5114H32.4972C32.4972 35.8144 32.3456 35.197 32.0426 34.6591C31.7396 34.1212 31.3191 33.7008 30.7812 33.3977C30.2509 33.0871 29.6335 32.9318 28.929 32.9318C28.1941 32.9318 27.5426 33.1023 26.9744 33.4432C26.4138 33.7765 25.9744 34.2273 25.6562 34.7955C25.3381 35.3561 25.1752 35.9811 25.1676 36.6705V39.5227C25.1676 40.3864 25.3267 41.1326 25.6449 41.7614C25.9706 42.3902 26.429 42.875 27.0199 43.2159C27.6108 43.5568 28.3116 43.7273 29.1222 43.7273C29.66 43.7273 30.1525 43.6515 30.5994 43.5C31.0464 43.3485 31.429 43.1212 31.7472 42.8182C32.0653 42.5152 32.3078 42.1439 32.4744 41.7045L36.9517 42C36.7244 43.0758 36.2585 44.0152 35.554 44.8182C34.857 45.6136 33.9555 46.2348 32.8494 46.6818C31.7509 47.1212 30.482 47.3409 29.0426 47.3409ZM45.054 36.9091V47H40.2131V29.5455H44.8267V32.625H45.0312C45.4176 31.6098 46.0653 30.8068 46.9744 30.2159C47.8835 29.6174 48.9858 29.3182 50.2812 29.3182C51.4934 29.3182 52.5502 29.5833 53.4517 30.1136C54.3532 30.6439 55.054 31.4015 55.554 32.3864C56.054 33.3636 56.304 34.5303 56.304 35.8864V47H51.4631V36.75C51.4706 35.6818 51.1979 34.8485 50.6449 34.25C50.0919 33.6439 49.3305 33.3409 48.3608 33.3409C47.7093 33.3409 47.1335 33.4811 46.6335 33.7614C46.1411 34.0417 45.7547 34.4508 45.4744 34.9886C45.2017 35.5189 45.0616 36.1591 45.054 36.9091ZM68.0057 47.3409C66.2405 47.3409 64.714 46.9659 63.4261 46.2159C62.1458 45.4583 61.1572 44.4053 60.4602 43.0568C59.7633 41.7008 59.4148 40.1288 59.4148 38.3409C59.4148 36.5379 59.7633 34.9621 60.4602 33.6136C61.1572 32.2576 62.1458 31.2045 63.4261 30.4545C64.714 29.697 66.2405 29.3182 68.0057 29.3182C69.7708 29.3182 71.2936 29.697 72.5739 30.4545C73.8617 31.2045 74.8542 32.2576 75.5511 33.6136C76.2481 34.9621 76.5966 36.5379 76.5966 38.3409C76.5966 40.1288 76.2481 41.7008 75.5511 43.0568C74.8542 44.4053 73.8617 45.4583 72.5739 46.2159C71.2936 46.9659 69.7708 47.3409 68.0057 47.3409ZM68.0284 43.5909C68.8314 43.5909 69.5019 43.3636 70.0398 42.9091C70.5777 42.447 70.983 41.8182 71.2557 41.0227C71.536 40.2273 71.6761 39.322 71.6761 38.3068C71.6761 37.2917 71.536 36.3864 71.2557 35.5909C70.983 34.7955 70.5777 34.1667 70.0398 33.7045C69.5019 33.2424 68.8314 33.0114 68.0284 33.0114C67.2178 33.0114 66.536 33.2424 65.983 33.7045C65.4375 34.1667 65.0246 34.7955 64.7443 35.5909C64.4716 36.3864 64.3352 37.2917 64.3352 38.3068C64.3352 39.322 64.4716 40.2273 64.7443 41.0227C65.0246 41.8182 65.4375 42.447 65.983 42.9091C66.536 43.3636 67.2178 43.5909 68.0284 43.5909ZM114.003 47.3295C112.889 47.3295 111.897 47.1364 111.026 46.75C110.154 46.3561 109.465 45.7765 108.957 45.0114C108.457 44.2386 108.207 43.2765 108.207 42.125C108.207 41.1553 108.385 40.3409 108.741 39.6818C109.098 39.0227 109.582 38.4924 110.196 38.0909C110.81 37.6894 111.507 37.3864 112.287 37.1818C113.075 36.9773 113.901 36.8333 114.764 36.75C115.779 36.6439 116.598 36.5455 117.219 36.4545C117.84 36.3561 118.291 36.2121 118.571 36.0227C118.851 35.8333 118.991 35.553 118.991 35.1818V35.1136C118.991 34.3939 118.764 33.8371 118.31 33.4432C117.863 33.0492 117.226 32.8523 116.401 32.8523C115.529 32.8523 114.836 33.0455 114.321 33.4318C113.806 33.8106 113.465 34.2879 113.298 34.8636L108.821 34.5C109.048 33.4394 109.495 32.5227 110.162 31.75C110.829 30.9697 111.688 30.3712 112.741 29.9545C113.802 29.5303 115.029 29.3182 116.423 29.3182C117.393 29.3182 118.321 29.4318 119.207 29.6591C120.101 29.8864 120.893 30.2386 121.582 30.7159C122.279 31.1932 122.829 31.8068 123.23 32.5568C123.632 33.2992 123.832 34.1894 123.832 35.2273V47H119.241V44.5795H119.105C118.825 45.125 118.45 45.6061 117.98 46.0227C117.51 46.4318 116.946 46.7538 116.287 46.9886C115.628 47.2159 114.866 47.3295 114.003 47.3295ZM115.389 43.9886C116.101 43.9886 116.73 43.8485 117.276 43.5682C117.821 43.2803 118.249 42.8939 118.56 42.4091C118.87 41.9242 119.026 41.375 119.026 40.7614V38.9091C118.874 39.0076 118.666 39.0985 118.401 39.1818C118.143 39.2576 117.851 39.3295 117.526 39.3977C117.2 39.4583 116.874 39.5152 116.548 39.5682C116.223 39.6136 115.927 39.6553 115.662 39.6932C115.094 39.7765 114.598 39.9091 114.173 40.0909C113.749 40.2727 113.42 40.5189 113.185 40.8295C112.95 41.1326 112.832 41.5114 112.832 41.9659C112.832 42.625 113.071 43.1288 113.548 43.4773C114.033 43.8182 114.647 43.9886 115.389 43.9886ZM136.872 29.5455V33.1818H126.361V29.5455H136.872ZM128.747 25.3636H133.588V41.6364C133.588 42.0833 133.656 42.4318 133.793 42.6818C133.929 42.9242 134.118 43.0947 134.361 43.1932C134.611 43.2917 134.899 43.3409 135.224 43.3409C135.452 43.3409 135.679 43.322 135.906 43.2841C136.134 43.2386 136.308 43.2045 136.429 43.1818L137.19 46.7841C136.948 46.8598 136.607 46.947 136.168 47.0455C135.728 47.1515 135.194 47.2159 134.565 47.2386C133.399 47.2841 132.376 47.1288 131.497 46.7727C130.626 46.4167 129.948 45.8636 129.463 45.1136C128.978 44.3636 128.74 43.4167 128.747 42.2727V25.3636ZM147.793 47.3409C145.997 47.3409 144.452 46.9773 143.156 46.25C141.868 45.5152 140.876 44.4773 140.179 43.1364C139.482 41.7879 139.134 40.1932 139.134 38.3523C139.134 36.5568 139.482 34.9811 140.179 33.625C140.876 32.2689 141.857 31.2121 143.122 30.4545C144.395 29.697 145.887 29.3182 147.599 29.3182C148.751 29.3182 149.823 29.5038 150.815 29.875C151.815 30.2386 152.687 30.7879 153.429 31.5227C154.179 32.2576 154.762 33.1818 155.179 34.2955C155.596 35.4015 155.804 36.697 155.804 38.1818V39.5114H141.065V36.5114H151.247C151.247 35.8144 151.096 35.197 150.793 34.6591C150.49 34.1212 150.069 33.7008 149.531 33.3977C149.001 33.0871 148.384 32.9318 147.679 32.9318C146.944 32.9318 146.293 33.1023 145.724 33.4432C145.164 33.7765 144.724 34.2273 144.406 34.7955C144.088 35.3561 143.925 35.9811 143.918 36.6705V39.5227C143.918 40.3864 144.077 41.1326 144.395 41.7614C144.721 42.3902 145.179 42.875 145.77 43.2159C146.361 43.5568 147.062 43.7273 147.872 43.7273C148.41 43.7273 148.902 43.6515 149.349 43.5C149.796 43.3485 150.179 43.1212 150.497 42.8182C150.815 42.5152 151.058 42.1439 151.224 41.7045L155.702 42C155.474 43.0758 155.009 44.0152 154.304 44.8182C153.607 45.6136 152.705 46.2348 151.599 46.6818C150.501 47.1212 149.232 47.3409 147.793 47.3409Z" fill="#253854"/>
<path d="M79.8352 23.7273H85.9034L92.3125 39.3636H92.5852L98.9943 23.7273H105.062V47H100.29V31.8523H100.097L94.0739 46.8864H90.8239L84.8011 31.7955H84.608V47H79.8352V23.7273Z" fill="#643977"/>
</svg>
