<svg width="27" height="27" viewBox="0 0 27 27" fill="none" xmlns="http://www.w3.org/2000/svg">
<path d="M17.36 16C17.44 15.34 17.5 14.68 17.5 14C17.5 13.32 17.44 12.66 17.36 12H20.74C20.9 12.64 21 13.31 21 14C21 14.69 20.9 15.36 20.74 16M15.59 21.56C16.19 20.45 16.65 19.25 16.97 18H19.92C18.9512 19.6683 17.4141 20.932 15.59 21.56ZM15.34 16H10.66C10.56 15.34 10.5 14.68 10.5 14C10.5 13.32 10.56 12.65 10.66 12H15.34C15.43 12.65 15.5 13.32 15.5 14C15.5 14.68 15.43 15.34 15.34 16ZM13 21.96C12.17 20.76 11.5 19.43 11.09 18H14.91C14.5 19.43 13.83 20.76 13 21.96ZM9 10H6.08C7.03886 8.32721 8.5748 7.06149 10.4 6.44C9.8 7.55 9.35 8.75 9 10ZM6.08 18H9C9.35 19.25 9.8 20.45 10.4 21.56C8.57862 20.9317 7.04485 19.6677 6.08 18ZM5.26 16C5.1 15.36 5 14.69 5 14C5 13.31 5.1 12.64 5.26 12H8.64C8.56 12.66 8.5 13.32 8.5 14C8.5 14.68 8.56 15.34 8.64 16M13 6.03C13.83 7.23 14.5 8.57 14.91 10H11.09C11.5 8.57 12.17 7.23 13 6.03ZM19.92 10H16.97C16.657 8.76146 16.1936 7.5659 15.59 6.44C17.43 7.07 18.96 8.34 19.92 10ZM13 4C7.47 4 3 8.5 3 14C3 16.6522 4.05357 19.1957 5.92893 21.0711C6.85752 21.9997 7.95991 22.7362 9.17317 23.2388C10.3864 23.7413 11.6868 24 13 24C15.6522 24 18.1957 22.9464 20.0711 21.0711C21.9464 19.1957 23 16.6522 23 14C23 12.6868 22.7413 11.3864 22.2388 10.1732C21.7362 8.95991 20.9997 7.85752 20.0711 6.92893C19.1425 6.00035 18.0401 5.26375 16.8268 4.7612C15.6136 4.25866 14.3132 4 13 4Z" fill="url(#paint0_linear_197_642)"/>
<defs>
<linearGradient id="paint0_linear_197_642" x1="3.36364" y1="4.68966" x2="26.5466" y2="11.0279" gradientUnits="userSpaceOnUse">
<stop stop-color="#643977"/>
<stop offset="1" stop-color="#253854"/>
</linearGradient>
</defs>
</svg>
