<svg width="27" height="27" viewBox="0 0 27 27" fill="none" xmlns="http://www.w3.org/2000/svg">
<path d="M20 4H9C7.897 4 7 4.897 7 6V9C7 10.103 7.897 11 9 11H20C21.103 11 22 10.103 22 9V6C22 4.897 21.103 4 20 4ZM9 9V6H20L20.002 9H9Z" fill="black"/>
<path d="M20 4H9C7.897 4 7 4.897 7 6V9C7 10.103 7.897 11 9 11H20C21.103 11 22 10.103 22 9V6C22 4.897 21.103 4 20 4ZM9 9V6H20L20.002 9H9Z" fill="url(#paint0_linear_197_635)"/>
<path d="M15 17V15C15 13.897 14.103 13 13 13H6V7C4.897 7 4 7.897 4 9V13C4 14.103 4.897 15 6 15H13V17C12.7348 17 12.4804 17.1054 12.2929 17.2929C12.1054 17.4804 12 17.7348 12 18V23C12 23.2652 12.1054 23.5196 12.2929 23.7071C12.4804 23.8946 12.7348 24 13 24H15C15.2652 24 15.5196 23.8946 15.7071 23.7071C15.8946 23.5196 16 23.2652 16 23V18C16 17.7348 15.8946 17.4804 15.7071 17.2929C15.5196 17.1054 15.2652 17 15 17Z" fill="black"/>
<path d="M15 17V15C15 13.897 14.103 13 13 13H6V7C4.897 7 4 7.897 4 9V13C4 14.103 4.897 15 6 15H13V17C12.7348 17 12.4804 17.1054 12.2929 17.2929C12.1054 17.4804 12 17.7348 12 18V23C12 23.2652 12.1054 23.5196 12.2929 23.7071C12.4804 23.8946 12.7348 24 13 24H15C15.2652 24 15.5196 23.8946 15.7071 23.7071C15.8946 23.5196 16 23.2652 16 23V18C16 17.7348 15.8946 17.4804 15.7071 17.2929C15.5196 17.1054 15.2652 17 15 17Z" fill="url(#paint1_linear_197_635)"/>
<defs>
<linearGradient id="paint0_linear_197_635" x1="7.27273" y1="4.24138" x2="21.1846" y2="12.3918" gradientUnits="userSpaceOnUse">
<stop stop-color="#643977"/>
<stop offset="1" stop-color="#253854"/>
</linearGradient>
<linearGradient id="paint1_linear_197_635" x1="4.21818" y1="7.58621" x2="18.6309" y2="10.3677" gradientUnits="userSpaceOnUse">
<stop stop-color="#643977"/>
<stop offset="1" stop-color="#253854"/>
</linearGradient>
</defs>
</svg>
