<svg width="80" height="44" viewBox="0 0 80 44" fill="none" xmlns="http://www.w3.org/2000/svg">
<rect x="12" y="7" width="55" height="29" rx="14.5" fill="url(#paint0_linear_80_31)"/>
<path fill-rule="evenodd" clip-rule="evenodd" d="M33.0898 15.0594C32.9457 15.0001 32.7872 14.9848 32.6344 15.0154C32.4815 15.046 32.3412 15.1212 32.231 15.2314C32.1208 15.3417 32.0458 15.4821 32.0153 15.635C31.9848 15.7878 32.0002 15.9463 32.0596 16.0904L37.5857 29.511C37.6449 29.6548 37.7452 29.7779 37.8741 29.8649C38.0029 29.9519 38.1546 29.9989 38.3101 30C38.4656 30.0011 38.618 29.9562 38.748 29.8711C38.8781 29.7859 38.9802 29.6642 39.0414 29.5213L41.161 24.5754C41.2409 24.3892 41.3893 24.2408 41.5755 24.1609L46.5213 22.0413C46.6642 21.9801 46.7859 21.878 46.8711 21.7479C46.9562 21.6178 47.0011 21.4655 47 21.31C46.9989 21.1545 46.9519 21.0028 46.8649 20.8739C46.7779 20.745 46.6548 20.6447 46.511 20.5855L33.0898 15.0594Z" fill="white"/>
<defs>
<linearGradient id="paint0_linear_80_31" x1="13" y1="8" x2="67" y2="36" gradientUnits="userSpaceOnUse">
<stop stop-color="#643977"/>
<stop offset="1" stop-color="#253854"/>
</linearGradient>
</defs>
</svg>
