<svg width="60" height="72" viewBox="0 0 60 72" fill="none" xmlns="http://www.w3.org/2000/svg">
<path d="M30.0038 33.277C29.2982 33.277 28.6374 33.5363 28.1371 34.0102C27.6391 34.484 27.363 35.1099 27.363 35.7783C27.363 36.4466 27.6391 37.0725 28.1371 37.5464C28.6374 38.018 29.2982 38.2796 30.0038 38.2796C30.7095 38.2796 31.3703 38.018 31.8706 37.5464C32.3686 37.0725 32.6447 36.4466 32.6447 35.7783C32.6447 35.1099 32.3686 34.484 31.8706 34.0102C31.6262 33.7769 31.3354 33.592 31.0149 33.4661C30.6944 33.3403 30.3508 33.276 30.0038 33.277ZM39.7341 38.5411L38.1907 37.2916C38.2638 36.8669 38.3016 36.4332 38.3016 36.0018C38.3016 35.5704 38.2638 35.1345 38.1907 34.712L39.7341 33.4625C39.8507 33.368 39.9342 33.2421 39.9734 33.1015C40.0126 32.961 40.0057 32.8124 39.9536 32.6757L39.9324 32.6176C39.5076 31.4925 38.8711 30.4497 38.0538 29.5396L38.0113 29.4926C37.9121 29.3821 37.7798 29.3027 37.6319 29.2647C37.4841 29.2268 37.3275 29.2323 37.183 29.2803L35.2666 29.9263C34.5586 29.3764 33.7704 28.9428 32.9161 28.641L32.5456 26.7432C32.5176 26.6003 32.4444 26.4687 32.3356 26.3661C32.2269 26.2635 32.0877 26.1947 31.9367 26.1688L31.873 26.1576C30.6458 25.9475 29.3525 25.9475 28.1253 26.1576L28.0616 26.1688C27.9105 26.1947 27.7714 26.2635 27.6626 26.3661C27.5539 26.4687 27.4806 26.6003 27.4527 26.7432L27.0798 28.6499C26.2336 28.9541 25.4452 29.3867 24.7458 29.9308L22.8153 29.2803C22.6708 29.2319 22.5141 29.2263 22.3662 29.2642C22.2182 29.3021 22.0859 29.3818 21.9869 29.4926L21.9444 29.5396C21.1286 30.4507 20.4923 31.4932 20.0659 32.6176L20.0446 32.6757C19.9384 32.9551 20.0258 33.2681 20.2641 33.4625L21.8264 34.7255C21.7533 35.1457 21.7179 35.5749 21.7179 35.9996C21.7179 36.4288 21.7533 36.8579 21.8264 37.2737L20.2688 38.5366C20.1522 38.6312 20.0688 38.7571 20.0296 38.8976C19.9904 39.0382 19.9973 39.1867 20.0494 39.3235L20.0706 39.3816C20.4978 40.5059 21.1279 41.5453 21.9492 42.4596L21.9916 42.5065C22.0909 42.617 22.2232 42.6965 22.371 42.7344C22.5189 42.7723 22.6754 42.7669 22.82 42.7189L24.7505 42.0684C25.4538 42.616 26.2373 43.0497 27.0845 43.3492L27.4574 45.2559C27.4854 45.3989 27.5586 45.5304 27.6673 45.633C27.7761 45.7356 27.9152 45.8045 28.0663 45.8304L28.13 45.8416C29.3693 46.0528 30.6384 46.0528 31.8777 45.8416L31.9414 45.8304C32.0924 45.8045 32.2316 45.7356 32.3403 45.633C32.4491 45.5304 32.5223 45.3989 32.5503 45.2559L32.9208 43.3582C33.7751 43.0542 34.5634 42.6227 35.2714 42.0729L37.1877 42.7189C37.3322 42.7673 37.4888 42.7729 37.6368 42.735C37.7848 42.697 37.917 42.6173 38.016 42.5065L38.0585 42.4596C38.8798 41.5409 39.5099 40.5059 39.9371 39.3816L39.9583 39.3235C40.0598 39.0463 39.9725 38.7356 39.7341 38.5411ZM30.0038 39.7079C27.7123 39.7079 25.855 37.9488 25.855 35.7783C25.855 33.6078 27.7123 31.8486 30.0038 31.8486C32.2954 31.8486 34.1527 33.6078 34.1527 35.7783C34.1527 37.9488 32.2954 39.7079 30.0038 39.7079Z" fill="url(#paint0_linear_80_8)"/>
<defs>
<linearGradient id="paint0_linear_80_8" x1="20" y1="26" x2="40" y2="46" gradientUnits="userSpaceOnUse">
<stop stop-color="#673B7B"/>
<stop offset="1" stop-color="#253854"/>
</linearGradient>
</defs>
</svg>
