<svg width="37" height="30" viewBox="0 0 37 30" fill="none" xmlns="http://www.w3.org/2000/svg">
<path d="M36.685 18.3902C36.685 28.5141 28.482 30 18.3632 30C8.24433 30 0.0413818 28.5141 0.0413818 18.3902C0.0413818 8.26635 8.24433 0 18.3632 0C28.482 0 36.685 8.26635 36.685 18.3902Z" fill="#CFE8F9"/>
<path d="M36.685 18.3902C36.685 28.5141 28.482 30 18.3632 30C8.24433 30 0.0413818 28.5141 0.0413818 18.3902C0.0413818 8.26635 8.24433 0 18.3632 0C28.482 0 36.685 8.26635 36.685 18.3902Z" fill="url(#paint0_linear_1_7)" fill-opacity="0.6"/>
<g filter="url(#filter0_i_1_7)">
<ellipse cx="18.4146" cy="15.7778" rx="13.4948" ry="10.2768" fill="url(#paint1_linear_1_7)"/>
</g>
<ellipse cx="13.5866" cy="14.2724" rx="1.50519" ry="2.33564" fill="white"/>
<ellipse cx="23.4492" cy="14.2724" rx="1.50519" ry="2.33564" fill="white"/>
<path d="M0.249021 15.6736C2.14517 23.4591 8.20836 25.7354 13.9514 29.895C8.50146 29.5317 -1.72335 28.0784 0.249021 15.6736Z" fill="url(#paint2_linear_1_7)"/>
<defs>
<filter id="filter0_i_1_7" x="4.9198" y="5.50098" width="26.9896" height="20.5537" filterUnits="userSpaceOnUse" color-interpolation-filters="sRGB">
<feFlood flood-opacity="0" result="BackgroundImageFix"/>
<feBlend mode="normal" in="SourceGraphic" in2="BackgroundImageFix" result="shape"/>
<feColorMatrix in="SourceAlpha" type="matrix" values="0 0 0 0 0 0 0 0 0 0 0 0 0 0 0 0 0 0 127 0" result="hardAlpha"/>
<feOffset/>
<feGaussianBlur stdDeviation="25"/>
<feComposite in2="hardAlpha" operator="arithmetic" k2="-1" k3="1"/>
<feColorMatrix type="matrix" values="0 0 0 0 0 0 0 0 0 0 0 0 0 0 0 0 0 0 0.4 0"/>
<feBlend mode="normal" in2="shape" result="effect1_innerShadow_1_7"/>
</filter>
<linearGradient id="paint0_linear_1_7" x1="25.7853" y1="1.7128" x2="5.3355" y2="28.0277" gradientUnits="userSpaceOnUse">
<stop stop-color="white"/>
<stop offset="1" stop-color="white" stop-opacity="0"/>
</linearGradient>
<linearGradient id="paint1_linear_1_7" x1="9.9544" y1="7.73281" x2="27.6534" y2="23.4076" gradientUnits="userSpaceOnUse">
<stop stop-color="#AD5FBC"/>
<stop offset="1" stop-color="#2E3FD4"/>
</linearGradient>
<linearGradient id="paint2_linear_1_7" x1="5.7507" y1="23.9781" x2="3.61495" y2="26.7229" gradientUnits="userSpaceOnUse">
<stop stop-color="#BED9EB" stop-opacity="0"/>
<stop offset="1" stop-color="#BED9EB"/>
</linearGradient>
</defs>
</svg>
