  <svg width="17" height="17" viewBox="0 0 17 17" fill="none"
                                xmlns="http://www.w3.org/2000/svg">
                                <path fill-rule="evenodd" clip-rule="evenodd"
                                    d="M1.23514 0.0673063C1.07178 8.46395e-05 0.892167 -0.0172697 0.718953 0.0174306C0.54574 0.052131 0.386674 0.137333 0.261808 0.262297C0.136942 0.387261 0.0518631 0.546393 0.017296 0.719636C-0.0172711 0.892879 0.000220624 1.07248 0.0675663 1.2358L6.33043 16.4458C6.3975 16.6088 6.5112 16.7483 6.65727 16.8469C6.80333 16.9455 6.97526 16.9987 7.15147 17C7.32769 17.0012 7.50035 16.9504 7.64779 16.8539C7.79523 16.7574 7.91088 16.6195 7.98025 16.4575L10.3825 10.8521C10.473 10.6411 10.6412 10.4729 10.8522 10.3824L16.4575 7.98011C16.6195 7.91074 16.7574 7.79508 16.8539 7.64764C16.9504 7.5002 17.0012 7.32754 17 7.15132C16.9987 6.9751 16.9455 6.80318 16.8469 6.65711C16.7483 6.51104 16.6088 6.39734 16.4459 6.33027L1.23514 0.0673063Z"
                                    fill="white" />
                            </svg> 