   <svg width="20" height="30" viewBox="0 0 15 15" fill="none" 
                                xmlns="http://www.w3.org/2000/svg">
                                <path
                                    d="M10.77 9C10.83 8.505 10.875 8.01 10.875 7.5C10.875 6.99 10.83 6.495 10.77 6H13.305C13.425 6.48 13.5 6.9825 13.5 7.5C13.5 8.0175 13.425 8.52 13.305 9M9.4425 13.17C9.8925 12.3375 10.2375 11.4375 10.4775 10.5H12.69C11.9634 11.7512 10.8106 12.699 9.4425 13.17ZM9.255 9H5.745C5.67 8.505 5.625 8.01 5.625 7.5C5.625 6.99 5.67 6.4875 5.745 6H9.255C9.3225 6.4875 9.375 6.99 9.375 7.5C9.375 8.01 9.3225 8.505 9.255 9ZM7.5 13.47C6.8775 12.57 6.375 11.5725 6.0675 10.5H8.9325C8.625 11.5725 8.1225 12.57 7.5 13.47ZM4.5 4.5H2.31C3.02914 3.24541 4.1811 2.29611 5.55 1.83C5.1 2.6625 4.7625 3.5625 4.5 4.5ZM2.31 10.5H4.5C4.7625 11.4375 5.1 12.3375 5.55 13.17C4.18397 12.6987 3.03363 11.7508 2.31 10.5ZM1.695 9C1.575 8.52 1.5 8.0175 1.5 7.5C1.5 6.9825 1.575 6.48 1.695 6H4.23C4.17 6.495 4.125 6.99 4.125 7.5C4.125 8.01 4.17 8.505 4.23 9M7.5 1.5225C8.1225 2.4225 8.625 3.4275 8.9325 4.5H6.0675C6.375 3.4275 6.8775 2.4225 7.5 1.5225ZM12.69 4.5H10.4775C10.2428 3.57109 9.89518 2.67442 9.4425 1.83C10.8225 2.3025 11.97 3.255 12.69 4.5ZM7.5 0C3.3525 0 0 3.375 0 7.5C0 9.48912 0.790176 11.3968 2.1967 12.8033C2.89314 13.4997 3.71993 14.0522 4.62987 14.4291C5.53982 14.806 6.51509 15 7.5 15C9.48912 15 11.3968 14.2098 12.8033 12.8033C14.2098 11.3968 15 9.48912 15 7.5C15 6.51509 14.806 5.53982 14.4291 4.62987C14.0522 3.71993 13.4997 2.89314 12.8033 2.1967C12.1069 1.50026 11.2801 0.947814 10.3701 0.570904C9.46018 0.193993 8.48491 0 7.5 0Z"
                                    fill="#1B2841" class="earth-svg"/>
                            </svg>