<svg width="15" height="19" viewBox="0 0 20 24" fill="none" xmlns="http://www.w3.org/2000/svg">
                                <path d="M18.1874 11.8189C18.3389 11.8403 18.4846 11.8914 18.6164 11.9692C18.7481 12.047 18.8632 12.15 18.955 12.2723C19.0469 12.3946 19.1137 12.5339 19.1517 12.6821C19.1897 12.8303 19.198 12.9845 19.1763 13.1359C18.8847 15.1534 17.9392 17.0195 16.4848 18.4478C15.0304 19.8761 13.1476 20.7877 11.1252 21.0428V22.2784C11.1252 22.587 11.0026 22.8829 10.7844 23.1011C10.5662 23.3193 10.2703 23.4419 9.96173 23.4419C9.65316 23.4419 9.35723 23.3193 9.13903 23.1011C8.92084 22.8829 8.79826 22.587 8.79826 22.2784V21.0428C6.77613 20.7873 4.89365 19.8755 3.43955 18.4472C1.98545 17.019 1.04003 15.1531 0.748274 13.1359C0.704457 12.8304 0.783788 12.5201 0.968814 12.2731C1.15384 12.0261 1.42941 11.8627 1.73489 11.8189C2.04037 11.7751 2.35075 11.8544 2.59774 12.0394C2.84474 12.2245 3.00811 12.5 3.05193 12.8055C3.29255 14.4664 4.12341 15.9851 5.39236 17.0835C6.66131 18.1819 8.28344 18.7864 9.96173 18.7864C11.64 18.7864 13.2621 18.1819 14.5311 17.0835C15.8 15.9851 16.6309 14.4664 16.8715 12.8055C16.8932 12.6542 16.9445 12.5087 17.0224 12.3773C17.1003 12.2458 17.2034 12.131 17.3257 12.0394C17.448 11.9478 17.5871 11.8811 17.7352 11.8433C17.8832 11.8055 18.0361 11.7972 18.1874 11.8189ZM9.96173 0.172638C11.5046 0.172638 12.9842 0.785531 14.0752 1.87649C15.1661 2.96744 15.779 4.4471 15.779 5.98995V11.8073C15.779 13.3501 15.1661 14.8298 14.0752 15.9207C12.9842 17.0117 11.5046 17.6246 9.96173 17.6246C8.41888 17.6246 6.93923 17.0117 5.84827 15.9207C4.75731 14.8298 4.14442 13.3501 4.14442 11.8073V5.98995C4.14442 4.4471 4.75731 2.96744 5.84827 1.87649C6.93923 0.785531 8.41888 0.172638 9.96173 0.172638Z" fill="white"/>
                                </svg>                