<svg width="42" height="35" viewBox="0 0 42 35" fill="none" xmlns="http://www.w3.org/2000/svg">
<path d="M42.0001 21.0554C42.0001 32.6465 32.6084 34.3477 21.0231 34.3477C9.43777 34.3477 0.0460205 32.6465 0.0460205 21.0554C0.0460205 9.46434 9.43777 0 21.0231 0C32.6084 0 42.0001 9.46434 42.0001 21.0554Z" fill="#CFE8F9"/>
<path d="M42.0001 21.0554C42.0001 32.6465 32.6084 34.3477 21.0231 34.3477C9.43777 34.3477 0.0460205 32.6465 0.0460205 21.0554C0.0460205 9.46434 9.43777 0 21.0231 0C32.6084 0 42.0001 9.46434 42.0001 21.0554Z" fill="url(#paint0_linear_1_45)" fill-opacity="0.6"/>
<g filter="url(#filter0_i_1_45)">
<ellipse cx="21.0799" cy="18.0655" rx="15.4505" ry="11.7662" fill="url(#paint1_linear_1_45)"/>
</g>
<ellipse cx="15.5563" cy="16.3413" rx="1.72333" ry="2.67413" fill="white"/>
<ellipse cx="26.8458" cy="16.3413" rx="1.72333" ry="2.67413" fill="white"/>
<path d="M0.285109 17.9463C2.45606 26.8601 9.39794 29.4663 15.9733 34.2288C9.73352 33.8128 -1.9731 32.1489 0.285109 17.9463Z" fill="url(#paint2_linear_1_45)"/>
<defs>
<filter id="filter0_i_1_45" x="5.62939" y="6.29932" width="30.9011" height="23.5323" filterUnits="userSpaceOnUse" color-interpolation-filters="sRGB">
<feFlood flood-opacity="0" result="BackgroundImageFix"/>
<feBlend mode="normal" in="SourceGraphic" in2="BackgroundImageFix" result="shape"/>
<feColorMatrix in="SourceAlpha" type="matrix" values="0 0 0 0 0 0 0 0 0 0 0 0 0 0 0 0 0 0 127 0" result="hardAlpha"/>
<feOffset/>
<feGaussianBlur stdDeviation="25"/>
<feComposite in2="hardAlpha" operator="arithmetic" k2="-1" k3="1"/>
<feColorMatrix type="matrix" values="0 0 0 0 0 0 0 0 0 0 0 0 0 0 0 0 0 0 0.4 0"/>
<feBlend mode="normal" in2="shape" result="effect1_innerShadow_1_45"/>
</filter>
<linearGradient id="paint0_linear_1_45" x1="29.5209" y1="1.96103" x2="6.10738" y2="32.0895" gradientUnits="userSpaceOnUse">
<stop stop-color="white"/>
<stop offset="1" stop-color="white" stop-opacity="0"/>
</linearGradient>
<linearGradient id="paint1_linear_1_45" x1="11.3936" y1="8.8546" x2="31.6576" y2="26.801" gradientUnits="userSpaceOnUse">
<stop stop-color="#AD5FBC"/>
<stop offset="1" stop-color="#2E3FD4"/>
</linearGradient>
<linearGradient id="paint2_linear_1_45" x1="6.58411" y1="27.4543" x2="4.13884" y2="30.597" gradientUnits="userSpaceOnUse">
<stop stop-color="#BED9EB" stop-opacity="0"/>
<stop offset="1" stop-color="#BED9EB"/>
</linearGradient>
</defs>
</svg>
